<svg width="15" height="15" viewBox="0 0 15 15" fill="none" xmlns="http://www.w3.org/2000/svg">
<path fill-rule="evenodd" clip-rule="evenodd" d="M6.59905 0.0554686C4.69169 0.291704 2.97699 1.21925 1.75915 2.67356C-1.13384 6.12826 -0.369474 11.3119 3.39681 13.7796C5.58445 15.213 8.3841 15.3968 10.7365 14.2616C12.3041 13.505 13.5024 12.3067 14.2589 10.7391C15.7422 7.66574 14.9449 3.96493 12.3251 1.7629C10.733 0.424675 8.64512 -0.197926 6.59905 0.0554686ZM8.65423 0.935411C11.0185 1.33624 13.0451 3.07521 13.8093 5.35908C14.7742 8.24273 13.713 11.3593 11.1916 13.0467C8.13391 15.093 4.00104 14.2594 1.9427 11.1812C0.463996 8.96988 0.463996 6.0289 1.9427 3.8207C2.46965 3.03378 3.04359 2.46094 3.82394 1.94309C5.24585 0.999434 6.94324 0.645315 8.65423 0.935411ZM7.06808 4.58878V4.99918H7.49802H7.92797V4.58878V4.17837H7.49802H7.06808V4.58878ZM7.0954 5.84477C7.08039 5.85981 7.06808 6.98604 7.06808 8.34756V10.823H7.4983H7.92856L7.91847 8.33126L7.90843 5.83953L7.51557 5.82847C7.29955 5.82241 7.11045 5.82972 7.0954 5.84477Z" fill="black" fill-opacity="0.15"/>
</svg>
