<svg width="13" height="25" viewBox="0 0 13 25" fill="none" xmlns="http://www.w3.org/2000/svg">
<path fill-rule="evenodd" clip-rule="evenodd" d="M1.28582 0.0795675C1.55774 0.216139 12.8338 11.918 12.9326 12.1662C13.0297 12.4099 13.0223 12.6239 12.9076 12.8885C12.7688 13.2087 1.67587 24.7089 1.33552 24.8854C1.03832 25.0395 0.823839 25.0384 0.518716 24.8808C0.12649 24.6783 -0.0502644 24.2806 0.0432997 23.811C0.0918274 23.5673 0.143515 23.5118 5.42823 18.0312L10.7642 12.4974L5.42874 6.96378C1.06294 2.43582 0.082819 1.39578 0.0355186 1.24084C-0.0375795 1.00141 0.00514793 0.662939 0.136157 0.443301C0.366579 0.0569929 0.902925 -0.112707 1.28582 0.0795675Z" fill="black"/>
</svg>
